<svg width="67" height="135" viewBox="0 0 67 135" fill="none" xmlns="http://www.w3.org/2000/svg">
<circle cx="60.8361" cy="5.94072" r="5.94072" transform="rotate(90 60.8361 5.94072)" fill="#001F7E" fill-opacity="0.07"/>
<circle cx="60.8361" cy="30.418" r="5.94072" transform="rotate(90 60.8361 30.418)" fill="#001F7E" fill-opacity="0.07"/>
<circle cx="60.8361" cy="54.8955" r="5.94072" transform="rotate(90 60.8361 54.8955)" fill="#001F7E" fill-opacity="0.07"/>
<circle cx="60.8361" cy="79.3728" r="5.94072" transform="rotate(90 60.8361 79.3728)" fill="#001F7E" fill-opacity="0.07"/>
<circle cx="60.8361" cy="103.85" r="5.94072" transform="rotate(90 60.8361 103.85)" fill="#001F7E" fill-opacity="0.07"/>
<circle cx="60.8361" cy="128.328" r="5.94072" transform="rotate(90 60.8361 128.328)" fill="#001F7E" fill-opacity="0.07"/>
<circle cx="33.3885" cy="5.94072" r="5.94072" transform="rotate(90 33.3885 5.94072)" fill="#001F7E" fill-opacity="0.07"/>
<circle cx="33.3885" cy="30.418" r="5.94072" transform="rotate(90 33.3885 30.418)" fill="#001F7E" fill-opacity="0.07"/>
<circle cx="33.3885" cy="54.8955" r="5.94072" transform="rotate(90 33.3885 54.8955)" fill="#001F7E" fill-opacity="0.07"/>
<circle cx="33.3885" cy="79.3728" r="5.94072" transform="rotate(90 33.3885 79.3728)" fill="#001F7E" fill-opacity="0.07"/>
<circle cx="33.3885" cy="103.85" r="5.94072" transform="rotate(90 33.3885 103.85)" fill="#001F7E" fill-opacity="0.07"/>
<circle cx="33.3885" cy="128.328" r="5.94072" transform="rotate(90 33.3885 128.328)" fill="#001F7E" fill-opacity="0.07"/>
<circle cx="5.94075" cy="5.94072" r="5.94072" transform="rotate(90 5.94075 5.94072)" fill="#001F7E" fill-opacity="0.07"/>
<circle cx="5.94075" cy="30.418" r="5.94072" transform="rotate(90 5.94075 30.418)" fill="#001F7E" fill-opacity="0.07"/>
<circle cx="5.94075" cy="54.8955" r="5.94072" transform="rotate(90 5.94075 54.8955)" fill="#001F7E" fill-opacity="0.07"/>
<circle cx="5.94081" cy="79.3728" r="5.94072" transform="rotate(90 5.94081 79.3728)" fill="#001F7E" fill-opacity="0.07"/>
<circle cx="5.94081" cy="103.85" r="5.94072" transform="rotate(90 5.94081 103.85)" fill="#001F7E" fill-opacity="0.07"/>
<circle cx="5.94081" cy="128.328" r="5.94072" transform="rotate(90 5.94081 128.328)" fill="#001F7E" fill-opacity="0.07"/>
</svg>
