<svg width="83" height="167" viewBox="0 0 83 167" fill="none" xmlns="http://www.w3.org/2000/svg">
<circle cx="75.335" cy="7.35656" r="7.35656" transform="rotate(90 75.335 7.35656)" fill="white"/>
<circle cx="75.335" cy="37.6676" r="7.35656" transform="rotate(90 75.335 37.6676)" fill="white"/>
<circle cx="75.335" cy="67.9789" r="7.35656" transform="rotate(90 75.335 67.9789)" fill="white"/>
<circle cx="75.335" cy="98.2897" r="7.35656" transform="rotate(90 75.335 98.2897)" fill="white"/>
<circle cx="75.335" cy="128.601" r="7.35656" transform="rotate(90 75.335 128.601)" fill="white"/>
<circle cx="75.335" cy="158.912" r="7.35656" transform="rotate(90 75.335 158.912)" fill="white"/>
<circle cx="41.3458" cy="7.35656" r="7.35656" transform="rotate(90 41.3458 7.35656)" fill="white"/>
<circle cx="41.3458" cy="37.6676" r="7.35656" transform="rotate(90 41.3458 37.6676)" fill="white"/>
<circle cx="41.3458" cy="67.9789" r="7.35656" transform="rotate(90 41.3458 67.9789)" fill="white"/>
<circle cx="41.3458" cy="98.2897" r="7.35656" transform="rotate(90 41.3458 98.2897)" fill="white"/>
<circle cx="41.3458" cy="128.601" r="7.35656" transform="rotate(90 41.3458 128.601)" fill="white"/>
<circle cx="41.3458" cy="158.912" r="7.35656" transform="rotate(90 41.3458 158.912)" fill="white"/>
<circle cx="7.35651" cy="7.35656" r="7.35656" transform="rotate(90 7.35651 7.35656)" fill="white"/>
<circle cx="7.35651" cy="37.6676" r="7.35656" transform="rotate(90 7.35651 37.6676)" fill="white"/>
<circle cx="7.35651" cy="67.9789" r="7.35656" transform="rotate(90 7.35651 67.9789)" fill="white"/>
<circle cx="7.35657" cy="98.2897" r="7.35656" transform="rotate(90 7.35657 98.2897)" fill="white"/>
<circle cx="7.35657" cy="128.601" r="7.35656" transform="rotate(90 7.35657 128.601)" fill="white"/>
<circle cx="7.35657" cy="158.912" r="7.35656" transform="rotate(90 7.35657 158.912)" fill="white"/>
</svg>
